HIERARCHY
ROOT Hips
{
	OFFSET 0.000000 0.000000 0.000000 
	CHANNELS 6 Xposition Yposition Zposition Zrotation Yrotation Xrotation
	JOINT LeftUpLeg
	{
		OFFSET 1.363060 -1.794630 0.839290 
		CHANNELS 3 Zrotation Yrotation Xrotation
		JOINT LeftLeg
		{
			OFFSET 2.448110 -6.726130 0.000000 
			CHANNELS 3 Zrotation Yrotation Xrotation
			JOINT LeftFoot
			{
				OFFSET 2.562200 -7.039590 0.000000 
				CHANNELS 3 Zrotation Yrotation Xrotation
				JOINT LeftToeBase
				{
					OFFSET 0.157640 -0.433110 2.322550 
					CHANNELS 3 Zrotation Yrotation Xrotation
					End Site
					{
						OFFSET 0.000000 0.000000 0.000000 
					}
				}
			}
		}
	}
	JOINT RightUpLeg
	{
		OFFSET -1.305520 -1.794630 0.839290 
		CHANNELS 3 Zrotation Yrotation Xrotation
		JOINT RightLeg
		{
			OFFSET -2.542530 -6.985550 0.000000 
			CHANNELS 3 Zrotation Yrotation Xrotation
			JOINT RightFoot
			{
				OFFSET -2.568260 -7.056230 0.000000 
				CHANNELS 3 Zrotation Yrotation Xrotation
				JOINT RightToeBase
				{
					OFFSET -0.164730 -0.452590 2.363150 
					CHANNELS 3 Zrotation Yrotation Xrotation
					End Site
					{
						OFFSET 0.000000 0.000000 0.000000 
					}
				}
			}
		}
	}
	JOINT Spine
	{
		OFFSET 0.028270 2.035590 -0.193380 
		CHANNELS 3 Zrotation Yrotation Xrotation
		JOINT Spine1
		{
			OFFSET 0.056720 2.048850 -0.042750 
			CHANNELS 3 Zrotation Yrotation Xrotation
			JOINT Neck1
			{
				OFFSET -0.054170 1.746240 0.172020 
				CHANNELS 3 Zrotation Yrotation Xrotation
				JOINT Head
				{
					OFFSET 0.104070 1.761360 -0.123970 
					CHANNELS 3 Zrotation Yrotation Xrotation
					End Site
					{
						OFFSET 0.000000 0.000000 0.000000 
					}
				}
			}
			JOINT LeftArm
			{
				OFFSET 3.362410 1.200890 -0.311210 
				CHANNELS 3 Zrotation Yrotation Xrotation
				JOINT LeftForeArm
				{
					OFFSET 4.983000 -0.000000 -0.000000 
					CHANNELS 3 Zrotation Yrotation Xrotation
					JOINT LeftHand
					{
						OFFSET 3.483560 -0.000000 -0.000000 
						CHANNELS 3 Zrotation Yrotation Xrotation
						JOINT LeftHandIndex1
						{
							OFFSET 0.715260 -0.000000 -0.000000 
							CHANNELS 3 Zrotation Yrotation Xrotation
							End Site
							{
								OFFSET 0.000000 0.000000 0.000000 
							}
						}
					}
				}
			}
			JOINT RightArm
			{
				OFFSET -3.136600 1.374050 -0.404650 
				CHANNELS 3 Zrotation Yrotation Xrotation
				JOINT RightForeArm
				{
					OFFSET -5.241900 -0.000000 -0.000000 
					CHANNELS 3 Zrotation Yrotation Xrotation
					JOINT RightHand
					{
						OFFSET -3.444170 -0.000000 -0.000000 
						CHANNELS 3 Zrotation Yrotation Xrotation
						JOINT RightHandIndex1
						{
							OFFSET -0.622530 -0.000000 -0.000000 
							CHANNELS 3 Zrotation Yrotation Xrotation
							End Site
							{
								OFFSET 0.000000 0.000000 0.000000 
							}
						}
					}
				}
			}
		}
	}
}
MOTION
Frames: 18
Frame Time: 0.041667
0.326644 29.369572 3.197164 -19.160449 -70.895539 18.132986 -23.113305 -6.791370 -3.878255 0.729746 11.106960 31.659863 -0.347301 5.265283 -12.502962 0.000100 -0.054100 -0.148700 35.308296 4.771020 -4.588764 -2.401407 -13.230082 35.433518 3.119393 -17.313457 -19.298713 -0.442800 4.269500 -11.836100 1.733846 2.898191 1.710664 -4.228639 1.440926 3.767381 5.271204 2.909046 12.132991 -3.143300 2.144900 4.796000 -94.504162 -7.208970 41.391332 96.676028 -66.772110 -78.430291 -1.624267 -3.611688 -0.692643 -7.125000 0.000000 0.000000 95.193094 17.570329 72.414830 -19.317828 27.864895 -6.608645 3.129956 -1.476795 1.213980 7.125000 0.000000 0.000000 
0.324912 29.365416 3.218409 -19.334462 -71.080878 18.278356 -23.197526 -6.694466 -3.823274 0.728354 11.105461 31.665295 -0.473008 5.636518 -12.449845 0.014100 -0.766700 -2.107100 35.220381 4.701897 -4.602304 -2.423669 -13.249617 35.515704 3.117103 -17.283764 -19.226707 -0.469500 4.394600 -12.189600 1.739072 2.887380 1.723795 -4.217439 1.432171 3.862953 5.520094 2.825632 12.631920 -3.007900 2.173400 5.068400 -94.607650 -7.049431 41.311985 96.979400 -66.834321 -78.597075 -1.612763 -3.595740 -0.663832 -7.125000 0.000000 0.000000 95.108616 17.667277 72.543546 -19.345611 27.914047 -6.629461 3.125321 -1.478746 1.191406 7.125000 0.000000 0.000000 
0.324797 29.363337 3.244042 -19.118929 -71.199113 18.098496 -23.404957 -6.692861 -3.751902 0.707964 11.092772 31.604888 -0.606571 6.018496 -12.334741 0.049200 -1.431400 -3.936600 34.957337 4.506528 -4.709970 -2.456177 -13.270870 35.623358 3.088558 -17.145062 -19.111314 -0.489000 4.483600 -12.441300 1.737322 2.793339 1.731029 -4.220713 1.383778 3.981327 5.774272 2.752583 13.198095 -2.860000 2.213800 5.374200 -94.710204 -6.869319 41.189919 97.278654 -66.896989 -78.753265 -1.599445 -3.581107 -0.667603 -7.125000 0.000000 0.000000 95.028958 17.786882 72.688700 -19.360879 27.952694 -6.643561 3.117137 -1.487850 1.229449 7.125000 0.000000 0.000000 
0.324912 29.362760 3.269790 -18.809420 -71.314012 17.850168 -23.639331 -6.721558 -3.671187 0.677141 11.067077 31.496670 -0.698166 6.277064 -12.237066 0.078300 -1.805300 -4.967800 34.660210 4.343548 -4.840129 -2.490804 -13.295980 35.743952 3.040433 -16.946579 -19.032953 -0.491600 4.495700 -12.475500 1.736794 2.672275 1.735910 -4.203050 1.319419 4.104422 6.024927 2.689206 13.814556 -2.710300 2.263900 5.705600 -94.803347 -6.666621 41.031335 97.592405 -66.958273 -78.912592 -1.582667 -3.567186 -0.704716 -7.125000 0.000000 0.000000 94.957623 17.923103 72.820834 -19.366098 27.979933 -6.652778 3.104116 -1.502153 1.389897 7.125000 0.000000 0.000000 
0.326298 29.363915 3.298310 -18.113111 -71.390584 17.292866 -23.989148 -6.802296 -3.621987 0.635543 11.041549 31.354942 -0.717030 6.327209 -12.198115 0.078200 -1.804400 -4.965300 34.195841 4.074721 -5.063434 -2.530771 -13.317014 35.869121 2.968742 -16.649298 -18.912350 -0.488700 4.482300 -12.437700 1.726647 2.504223 1.733630 -4.197731 1.234038 4.239394 6.274088 2.620721 14.456769 -2.555600 2.313000 6.043600 -94.879807 -6.447274 40.867655 97.907533 -67.019485 -79.069535 -1.567387 -3.551163 -0.774735 -7.125000 0.000000 0.000000 94.888943 18.065027 72.923772 -19.367132 28.004981 -6.660020 3.087981 -1.516057 1.645235 7.125000 0.000000 0.000000 
0.327221 29.365300 3.323134 -17.635109 -71.517727 16.928784 -24.262733 -6.842028 -3.582213 0.601789 11.015715 31.229423 -0.650315 6.135981 -12.260554 0.045200 -1.371900 -3.772800 33.838418 3.926728 -5.227191 -2.561141 -13.334489 35.968480 2.898887 -16.377931 -18.854309 -0.474000 4.415400 -12.248500 1.722252 2.381692 1.733313 -4.172161 1.168472 4.353277 6.516821 2.532040 15.101392 -2.403800 2.351100 6.375600 -94.925243 -6.237335 40.727974 98.191280 -67.071195 -79.207456 -1.556746 -3.532943 -0.868720 -7.125000 0.000000 0.000000 94.820289 18.199849 73.031885 -19.373100 28.032169 -6.669336 3.076269 -1.523292 1.825202 7.125000 0.000000 0.000000 
0.326760 29.366686 3.343109 -17.475921 -71.700548 16.840087 -24.424533 -6.841172 -3.550072 0.584627 10.998465 31.154410 -0.498257 5.704343 -12.427079 0.007600 -0.564000 -1.549800 33.640985 3.927700 -5.294616 -2.575314 -13.342669 36.017213 2.853284 -16.211400 -18.850462 -0.460900 4.354900 -12.077300 1.726255 2.320659 1.736957 -4.129117 1.129995 4.447879 6.731678 2.419513 15.757865 -2.272000 2.377700 6.712300 -94.943549 -6.038743 40.627119 98.435014 -67.113057 -79.324750 -1.551912 -3.512478 -0.956717 -7.125000 0.000000 0.000000 94.750673 18.322811 73.147041 -19.385166 28.061217 -6.680705 3.072157 -1.517478 1.890741 7.125000 0.000000 0.000000 
0.325143 29.367725 3.358004 -17.662241 -71.948618 17.040944 -24.476412 -6.792281 -3.517685 0.586845 10.993798 31.143430 -0.317594 5.196128 -12.641649 0.002200 0.303500 0.833900 33.609629 4.079243 -5.249421 -2.572854 -13.340355 36.011891 2.841268 -16.179777 -18.889364 -0.455300 4.328800 -12.003500 1.737397 2.331221 1.746214 -4.071313 1.124544 4.520179 6.924171 2.286165 16.403981 -2.155700 2.391900 7.038300 -94.909494 -5.866524 40.573978 98.633552 -67.142614 -79.417027 -1.550192 -3.492669 -1.053374 -7.125000 0.000000 0.000000 94.686148 18.425376 73.267209 -19.398329 28.086248 -6.690075 3.076727 -1.504246 1.797458 7.125000 0.000000 0.000000 
0.321448 29.368071 3.366202 -18.544383 -72.241784 17.849301 -24.304621 -6.690712 -3.468805 0.607397 10.989428 31.181214 -0.151609 4.731903 -12.841574 0.026600 1.053300 2.895400 33.888072 4.456280 -5.057183 -2.550440 -13.336038 35.958251 2.870710 -16.330436 -19.026088 -0.452700 4.316300 -11.968200 1.767002 2.418871 1.763637 -3.994789 1.153273 4.566367 7.068764 2.146076 17.032871 -2.071800 2.399500 7.353000 -94.826787 -5.725315 40.561242 98.757255 -67.156717 -79.466653 -1.552168 -3.475672 -1.158627 -7.125000 0.000000 0.000000 94.637148 18.512640 73.387042 -19.404106 28.095150 -6.691884 3.088970 -1.488584 1.583504 7.125000 0.000000 0.000000 
0.318331 29.368071 3.373707 -19.394597 -72.558124 18.619645 -24.167022 -6.587993 -3.420695 0.629956 10.992910 31.238492 -0.053796 4.464652 -12.979794 0.051200 1.459800 4.014900 34.150693 4.848475 -4.843820 -2.525312 -13.324720 35.886514 2.919880 -16.542868 -19.132871 -0.459100 4.346200 -12.052800 1.793074 2.519943 1.781178 -3.928093 1.188914 4.595343 7.171761 2.023920 17.636777 -2.010300 2.411000 7.655400 -94.737751 -5.608413 40.569143 98.788097 -67.159782 -79.465095 -1.558131 -3.463687 -1.252324 -7.125000 0.000000 0.000000 94.601003 18.594035 73.503330 -19.400082 28.089377 -6.685854 3.104944 -1.474735 1.323047 7.125000 0.000000 0.000000 
0.316830 29.368764 3.385715 -19.807607 -72.797857 19.007528 -24.167699 -6.545039 -3.389171 0.641540 11.002755 31.281999 -0.045747 4.446299 -13.006866 0.051300 1.461600 4.019800 34.222576 5.040420 -4.726053 -2.508668 -13.306562 35.820387 2.960143 -16.691831 -19.144510 -0.473700 4.413900 -12.244000 1.805934 2.558879 1.792519 -3.922687 1.201598 4.624614 7.228230 1.927771 18.186273 -1.968600 2.425200 7.922400 -94.655600 -5.507653 40.581530 98.747585 -67.159520 -79.425085 -1.567115 -3.456182 -1.344138 -7.125000 0.000000 0.000000 94.572101 18.670776 73.596810 -19.389761 28.079554 -6.675738 3.118240 -1.467255 1.103640 7.125000 0.000000 0.000000 
0.315329 29.369226 3.398069 -20.170615 -73.011084 19.344090 -24.180916 -6.484829 -3.358638 0.647015 11.006240 31.306232 -0.101264 4.603013 -12.950866 0.036200 1.228900 3.378800 34.273865 5.201171 -4.624632 -2.495730 -13.292189 35.770623 2.986261 -16.796222 -19.178011 -0.479400 4.440200 -12.318500 1.816869 2.583880 1.804349 -3.946837 1.210595 4.647820 7.219984 1.862219 18.674446 -1.965300 2.445300 8.159100 -94.575793 -5.416822 40.591226 98.672321 -67.156418 -79.366051 -1.578122 -3.450148 -1.435657 -7.125000 0.000000 0.000000 94.553151 18.745731 73.634900 -19.380259 28.071647 -6.667516 3.123790 -1.468270 1.017534 7.125000 0.000000 0.000000 
0.314405 29.370150 3.413080 -20.128327 -73.157879 19.321011 -24.295982 -6.436554 -3.356720 0.645222 11.013316 31.314830 -0.180492 4.817477 -12.832870 0.018800 0.885600 2.434000 34.168776 5.208171 -4.606736 -2.491333 -13.276690 35.739135 2.985761 -16.794754 -19.185351 -0.479100 4.439000 -12.315000 1.818687 2.558345 1.813126 -4.008244 1.199383 4.683729 7.149494 1.832456 19.096802 -1.998500 2.473600 8.365600 -94.499208 -5.324498 40.588931 98.635175 -67.159173 -79.329226 -1.586724 -3.443083 -1.540863 -7.125000 0.000000 0.000000 94.527923 18.819069 73.607184 -19.382062 28.080257 -6.667982 3.121457 -1.468837 1.098664 7.125000 0.000000 0.000000 
0.314059 29.370496 3.426011 -20.144659 -73.303816 19.339803 -24.382466 -6.342424 -3.374571 0.650120 11.025228 31.344118 -0.252046 5.004988 -12.697421 0.007300 0.550100 1.511600 34.090509 5.220285 -4.580033 -2.485536 -13.261380 35.706436 2.976715 -16.772004 -19.222126 -0.469700 4.395800 -12.192900 1.824237 2.540508 1.824137 -4.060062 1.191402 4.708937 7.047637 1.838134 19.439396 -2.050200 2.509200 8.534100 -94.423610 -5.236043 40.564356 98.687213 -67.167330 -79.342974 -1.587918 -3.434790 -1.679553 -7.125000 0.000000 0.000000 94.482816 18.882919 73.563604 -19.405811 28.117011 -6.683952 3.113141 -1.473387 1.207491 7.125000 0.000000 0.000000 
0.314174 29.370265 3.436172 -20.311549 -73.449472 19.492344 -24.410449 -6.220482 -3.410566 0.663419 11.042118 31.397561 -0.298091 5.112864 -12.554451 0.002000 0.291500 0.800900 34.072117 5.253826 -4.546914 -2.478181 -13.249178 35.673259 2.977103 -16.782895 -19.256580 -0.465400 4.376000 -12.137000 1.835921 2.537753 1.835395 -4.094744 1.189327 4.719393 6.929464 1.871686 19.721875 -2.114300 2.552300 8.679000 -94.341855 -5.137333 40.516493 98.871136 -67.183120 -79.431913 -1.578945 -3.423950 -1.847328 -7.125000 0.000000 0.000000 94.417353 18.930749 73.508865 -19.451610 28.179992 -6.714489 3.102241 -1.476259 1.333353 7.125000 0.000000 0.000000 
0.315098 29.369919 3.443677 -20.637612 -73.590263 19.793369 -24.377115 -6.085203 -3.468085 0.685034 11.065230 31.477354 -0.314219 5.129904 -12.412998 0.000400 0.129000 0.354300 34.110315 5.297696 -4.519703 -2.470192 -13.241272 35.642720 2.987414 -16.825202 -19.273495 -0.468900 4.391900 -12.181900 1.854154 2.549968 1.845571 -4.108274 1.192809 4.713001 6.823120 1.931819 19.945869 -2.174100 2.603400 8.798200 -94.252652 -5.023531 40.458182 99.177043 -67.204991 -79.590428 -1.561717 -3.409758 -2.035725 -7.125000 0.000000 0.000000 94.330568 18.959309 73.454935 -19.512426 28.262205 -6.754910 3.089158 -1.485729 1.453080 7.125000 0.000000 0.000000 
0.317523 29.369457 3.449566 -21.027455 -73.722021 20.155664 -24.313300 -5.942878 -3.542012 0.709060 11.089490 31.562496 -0.315702 5.102846 -12.274321 -0.000000 0.025000 0.068800 34.164889 5.324508 -4.516508 -2.466466 -13.240803 35.629948 3.005323 -16.882762 -19.248253 -0.482900 4.456200 -12.363900 1.876468 2.567211 1.853775 -4.104318 1.197045 4.691187 6.734817 2.012728 20.121834 -2.223000 2.659800 8.895100 -94.167713 -4.912339 40.405595 99.498757 -67.223857 -79.758560 -1.543587 -3.395142 -2.230960 -7.125000 0.000000 0.000000 94.219132 18.981028 73.429153 -19.581182 28.354466 -6.799704 3.076821 -1.499692 1.538578 7.125000 0.000000 0.000000 
0.322026 29.369110 3.455570 -21.212525 -73.843221 20.331533 -24.301701 -5.809280 -3.625210 0.726300 11.111035 31.626447 -0.320650 5.087322 -12.139248 0.000200 -0.080500 -0.221100 34.136873 5.286188 -4.568463 -2.473993 -13.249305 35.653946 3.023013 -16.917806 -19.151860 -0.508600 4.571500 -12.690300 1.894198 2.570545 1.858570 -4.101036 1.194499 4.659462 6.665779 2.101689 20.267266 -2.259700 2.717200 8.978200 -94.112506 -4.816994 40.368997 99.735568 -67.235855 -79.881510 -1.531542 -3.383082 -2.394616 -7.125000 0.000000 0.000000 94.094223 19.008129 73.451707 -19.648418 28.444707 -6.842502 3.068245 -1.515962 1.579512 7.125000 0.000000 0.000000 
